<?xml version="1.0" standalone="no"?>
<!DOCTYPE svg PUBLIC "-//W3C//DTD SVG 20010904//EN"
 "http://www.w3.org/TR/2001/REC-SVG-20010904/DTD/svg10.dtd">
<svg version="1.0" xmlns="http://www.w3.org/2000/svg"
 width="360.000000pt" height="360.000000pt" viewBox="0 0 360.000000 360.000000"
 preserveAspectRatio="xMidYMid meet">
<metadata>
Created by potrace 1.14, written by Peter Selinger 2001-2017
</metadata>
<g transform="translate(0.000000,360.000000) scale(0.100000,-0.100000)"
fill="#000000" stroke="none">
<path d="M1321 2784 c-62 -31 -104 -84 -122 -154 l-13 -50 -49 0 c-74 0 -116
-29 -117 -82 0 -18 -8 -31 -22 -39 -13 -7 -26 -17 -30 -23 -4 -6 -8 -98 -8
-203 0 -180 1 -194 20 -213 11 -11 24 -20 30 -20 6 0 10 -14 10 -30 0 -19 9
-40 25 -55 20 -21 34 -25 84 -25 l60 0 3 -238 3 -239 30 -49 c19 -30 49 -60
79 -79 l49 -30 431 -3 c379 -2 436 -1 474 14 61 23 101 60 128 119 23 48 24
60 24 278 l0 227 60 0 c51 0 65 4 85 25 16 15 25 36 25 55 0 16 5 30 10 30 6
0 19 9 30 20 19 19 20 33 20 213 0 105 -4 197 -8 203 -4 6 -17 16 -29 23 -14
7 -23 21 -23 36 0 57 -39 85 -118 85 -49 0 -50 0 -57 37 -15 82 -59 138 -135
172 -43 20 -64 21 -471 21 l-425 0 -53 -26z m957 -62 c35 -25 72 -88 72 -122
0 -20 -3 -20 -551 -20 l-551 0 6 31 c9 49 44 98 84 119 35 19 58 19 472 17
l435 -2 33 -23z m-1088 -492 l0 -290 -39 0 c-22 0 -46 3 -55 6 -25 9 -19 50 9
68 l25 17 -2 207 c-3 204 -3 207 -25 217 -22 9 -31 43 -16 58 3 4 28 7 55 7
l48 0 0 -290z m1160 -55 l0 -345 -550 0 -550 0 0 345 0 345 550 0 550 0 0
-345z m170 324 c13 -23 11 -27 -22 -43 -23 -11 -23 -15 -26 -219 l-2 -208 30
-17 c53 -30 27 -72 -46 -72 l-44 0 0 290 0 290 50 0 c40 0 51 -4 60 -21z
m-1442 -266 l2 -173 -30 0 -30 0 0 176 0 175 28 -3 27 -3 3 -172z m1502 2 l0
-175 -25 0 -25 0 0 175 0 175 25 0 25 0 0 -175z m-230 -495 c0 -26 -4 -30 -27
-30 -60 0 -127 -34 -189 -95 -72 -71 -87 -112 -57 -154 20 -25 24 -26 142 -29
66 -1 121 -7 121 -12 0 -18 -65 -83 -97 -96 -47 -20 -839 -20 -886 0 -32 13
-97 78 -97 96 0 6 49 10 119 10 117 0 120 1 140 26 29 36 26 61 -10 114 -54
78 -155 140 -230 140 -26 0 -29 4 -29 30 l0 30 550 0 550 0 0 -30z m-1045
-115 c0 -22 -31 -33 -47 -17 -17 17 -1 44 24 40 15 -2 23 -10 23 -23z m1040 0
c0 -25 -40 -33 -49 -10 -9 24 2 37 27 33 14 -2 22 -10 22 -23z m-945 -26 c0
-5 -4 -9 -10 -9 -21 0 -50 -45 -50 -77 0 -32 -1 -33 -45 -33 -43 0 -45 1 -45
29 0 26 4 29 40 35 33 5 45 13 61 41 13 21 26 32 35 28 8 -3 14 -9 14 -14z
m844 -4 c7 -26 51 -55 86 -55 16 0 20 -6 20 -30 0 -29 -2 -30 -45 -30 -45 0
-45 0 -45 35 0 34 -21 66 -51 78 -12 5 -11 7 1 16 22 16 27 14 34 -14z m-796
-79 c4 -21 -14 -37 -35 -29 -14 5 -18 35 -6 47 12 12 38 1 41 -18z m751 11
c15 -19 -9 -50 -32 -41 -17 6 -23 35 -10 47 10 11 30 8 42 -6z"/>
<path d="M1717 2463 c-4 -3 -7 -134 -7 -290 l0 -283 30 0 30 0 0 290 0 290
-23 0 c-13 0 -27 -3 -30 -7z"/>
<path d="M1830 2181 l0 -291 30 0 30 0 -2 288 -3 287 -27 3 -28 3 0 -290z"/>
<path d="M1561 1684 c-26 -34 -26 -37 5 -164 38 -154 31 -150 234 -150 202 0
196 -4 234 147 31 123 32 133 5 167 l-20 26 -219 0 -219 0 -20 -26z m435 -39
c4 -8 -5 -59 -18 -113 l-24 -97 -154 0 -154 0 -24 97 c-13 54 -22 105 -18 113
4 13 35 15 196 15 161 0 192 -2 196 -15z"/>
<path d="M1674 1015 c-4 -9 -2 -21 4 -27 16 -16 47 -5 47 17 0 26 -42 34 -51
10z"/>
<path d="M916 1007 c-30 -22 -16 -58 34 -87 47 -27 59 -55 25 -55 -12 0 -25
11 -33 28 -14 30 -39 36 -49 11 -16 -41 93 -72 142 -40 40 26 32 51 -30 91
-31 19 -53 40 -50 45 11 18 35 10 47 -15 6 -14 17 -25 25 -25 20 0 16 38 -6
50 -27 14 -84 13 -105 -3z"/>
<path d="M1097 1011 c-15 -6 -19 -19 -20 -79 -2 -77 8 -91 53 -77 15 5 18 12
13 36 -7 39 1 37 21 -6 17 -35 38 -43 65 -26 11 7 8 16 -15 46 l-28 37 25 19
24 19 -32 0 c-22 0 -33 -5 -33 -14 0 -8 -7 -16 -15 -20 -12 -4 -15 3 -15 34 0
41 -7 46 -43 31z"/>
<path d="M1581 1006 c-15 -8 -20 -16 -12 -20 14 -9 15 -98 0 -113 -13 -13 33
-27 62 -18 15 5 17 10 9 25 -6 10 -10 46 -10 79 0 65 -6 71 -49 47z"/>
<path d="M1979 991 c-51 -52 -40 -80 64 -163 38 -31 84 -37 94 -12 9 24 -13
41 -37 26 -14 -9 -21 -9 -26 0 -4 7 -2 14 5 16 26 9 51 47 51 79 0 77 -94 110
-151 54z m79 -18 c10 -26 16 -63 13 -90 -1 -7 -8 -13 -17 -13 -18 0 -44 58
-44 100 0 40 33 42 48 3z"/>
<path d="M2640 980 c-19 -17 -29 -30 -22 -30 7 0 12 -15 12 -39 0 -47 19 -66
57 -56 16 4 22 10 16 12 -8 3 -13 21 -13 43 0 21 6 41 13 44 10 5 10 7 0 12
-7 3 -13 14 -13 25 0 26 -9 24 -50 -11z"/>
<path d="M1300 970 c-14 -3 -31 -18 -39 -32 -13 -23 -13 -29 2 -51 20 -31 60
-42 94 -25 41 20 51 43 33 75 -17 29 -52 43 -90 33z m41 -50 c13 -44 6 -62
-15 -39 -12 12 -21 47 -17 72 3 21 22 2 32 -33z"/>
<path d="M1451 967 c-33 -17 -45 -39 -38 -69 12 -45 83 -59 125 -26 26 22 5
98 -28 98 -5 0 -14 2 -22 5 -7 3 -24 -1 -37 -8z m39 -26 c13 -25 13 -71 0 -71
-12 0 -30 42 -30 71 0 25 16 25 30 0z"/>
<path d="M1795 970 c-52 -20 -58 -70 -13 -103 18 -13 34 -18 51 -13 28 7 57
31 57 49 0 8 -4 7 -12 -1 -7 -7 -23 -12 -37 -11 -25 1 -25 1 7 15 40 18 43 50
6 64 -29 12 -32 12 -59 0z m38 -14 c3 -8 0 -22 -7 -31 -12 -16 -13 -16 -19 -1
-7 18 1 46 13 46 4 0 10 -6 13 -14z"/>
<path d="M2168 967 c-29 -11 -35 -22 -18 -32 6 -3 10 -19 10 -35 0 -37 30 -56
61 -40 15 8 24 8 34 0 8 -6 23 -9 33 -6 17 6 19 14 15 54 -7 71 -8 72 -41 60
-27 -11 -29 -15 -24 -50 4 -31 1 -38 -12 -38 -13 0 -16 10 -16 50 0 53 0 54
-42 37z"/>
<path d="M2365 970 c-52 -20 -58 -70 -13 -103 18 -13 34 -18 51 -13 28 7 57
31 57 49 0 8 -4 7 -12 -1 -7 -7 -23 -12 -37 -11 -25 1 -25 1 7 15 40 18 43 50
6 64 -29 12 -32 12 -59 0z m38 -14 c3 -8 0 -22 -7 -31 -12 -16 -13 -16 -19 -1
-7 18 1 46 13 46 4 0 10 -6 13 -14z"/>
<path d="M2510 973 c-50 -19 -42 -55 16 -79 19 -8 32 -19 29 -24 -10 -17 -34
-11 -45 10 -13 23 -40 27 -40 5 0 -39 109 -44 129 -7 12 23 4 35 -36 56 -18 9
-33 21 -33 26 0 15 16 12 30 -5 16 -19 30 -19 30 -1 0 20 -47 31 -80 19z"/>
<path d="M1682 960 c-19 -8 -21 -12 -10 -29 9 -15 9 -25 0 -45 -10 -22 -8 -26
8 -31 29 -9 63 4 56 22 -3 8 -6 32 -6 54 0 41 -7 45 -48 29z"/>
</g>
</svg>
